<svg xmlns="http://www.w3.org/2000/svg" viewBox="0 0 500 500"><g id="freepik--Character--inject-18"><path d="M208.08,418.22c-30.81,12.84-56.41,15.2-84.9,10.94-4.13-.62-8.37-1.46-11.79-3.85s-5.81-6.73-4.7-10.75c.91-3.28,3.8-5.57,6.58-7.52,30.64-21.54,67.55-31.93,103.81-41.32,32.58-8.43,65.74-16.42,99.39-15.86,3.06.05,6.59.41,8.35,2.93,1.64,2.36.91,5.76-.92,8s-4.5,3.54-7.08,4.8L208.08,418.22" style="fill:#407FFF"></path><g style="opacity:0.30000000000000004"><path d="M178.15,378.38a6.41,6.41,0,0,1-.71.36l-2.07,1c-1.8.82-4.42,2-7.67,3.34-6.5,2.77-15.57,6.39-25.48,10.64s-18.72,8.49-24.73,12.16a19.24,19.24,0,0,0-6,5.6,16.29,16.29,0,0,0-1.34,2.74,8.92,8.92,0,0,1,1.16-2.85,18.91,18.91,0,0,1,6-5.8c6-3.78,14.82-8,24.73-12.33s19-7.82,25.54-10.5l7.73-3.19,2.11-.86A3.4,3.4,0,0,1,178.15,378.38Z" style="fill:#fff"></path></g><path d="M149.32,431.37a10,10,0,0,1-1.11-1.11c-.68-.74-1.66-1.82-2.85-3.17-2.4-2.69-5.65-6.46-9.2-10.65l-9.07-10.75c-1.11-1.32-2-2.42-2.73-3.27a11.15,11.15,0,0,1-1-1.24,8.12,8.12,0,0,1,1.11,1.11c.68.74,1.66,1.82,2.86,3.16,2.39,2.7,5.64,6.46,9.19,10.65l9.07,10.75,2.74,3.27A10,10,0,0,1,149.32,431.37Z" style="fill:#fff"></path><path d="M178.93,427.37c-.11.09-7.72-8.41-17-19s-16.74-19.24-16.63-19.33,7.73,8.4,17,19S179,427.28,178.93,427.37Z" style="fill:#fff"></path><path d="M204.14,419.83c-.11.1-7.94-8.85-17.49-20s-17.22-20.24-17.11-20.33,8,8.85,17.5,20S204.25,419.74,204.14,419.83Z" style="fill:#fff"></path><path d="M227.18,409c-.11.1-6.78-7.49-14.9-16.95s-14.61-17.21-14.5-17.3,6.78,7.5,14.9,17S227.29,408.87,227.18,409Z" style="fill:#fff"></path><path d="M250,397.9c-.11.09-6.6-7.29-14.49-16.49s-14.2-16.72-14.09-16.82,6.59,7.29,14.49,16.49S250.15,397.8,250,397.9Z" style="fill:#fff"></path><path d="M272.56,387a7.64,7.64,0,0,1-1-1c-.65-.69-1.56-1.71-2.67-3-2.23-2.54-5.23-6.1-8.49-10.08s-6.16-7.5-8.36-10.17l-2.54-3.08a7.74,7.74,0,0,1-.89-1.17,7.91,7.91,0,0,1,1,1c.64.69,1.55,1.7,2.67,3,2.23,2.53,5.23,6.09,8.49,10.08l8.36,10.17,2.54,3.07A7.15,7.15,0,0,1,272.56,387Z" style="fill:#fff"></path><path d="M295.77,375.76a5.53,5.53,0,0,1-.88-.85c-.53-.57-1.3-1.4-2.23-2.44-1.87-2.08-4.4-5-7.15-8.26l-7-8.35-2.11-2.55a5.44,5.44,0,0,1-.72-1,5.73,5.73,0,0,1,.87.85c.54.56,1.3,1.4,2.24,2.44,1.86,2.08,4.4,5,7.14,8.26l7,8.35,2.11,2.55A6.17,6.17,0,0,1,295.77,375.76Z" style="fill:#fff"></path><path d="M318.62,364.68a16,16,0,0,1-2-2c-1.19-1.31-2.84-3.11-4.54-5.22s-3.31-3.94-4.43-5.31a16,16,0,0,1-1.74-2.28,17.27,17.27,0,0,1,2,2c1.19,1.31,2.84,3.11,4.55,5.22s3.3,3.94,4.42,5.31A15.75,15.75,0,0,1,318.62,364.68Z" style="fill:#fff"></path><g style="opacity:0.30000000000000004"><path d="M264.19,359.33c-1.85,2.83-.17,6.81,2.51,8.86s6.11,2.84,9.23,4.13,5.82,3,8.92,4.08,6.72,1.25,9.46-.54c1.75-1.15,3-3.35,2.38-5.35-.57-1.82-2.44-2.86-4.17-3.67a111.94,111.94,0,0,0-25.2-8.35"></path></g><g style="opacity:0.30000000000000004"><path d="M182.53,382.46a128,128,0,0,0,4.37,35.38,8.49,8.49,0,0,0,1.47,3.46c2.2,2.62,6.34,1.84,9.6.83a32.68,32.68,0,0,0,7.69-3.13,11,11,0,0,0,5.07-6.35c1-3.95-1-8-3-11.5-4.07-7.19-8.43-14.42-14.68-19.83-1.79-1.55-3.92-3-6.29-2.94s-4.76,2.31-4.09,4.58"></path></g><path d="M324.63,352s-.07.19-.23.57a15.76,15.76,0,0,1-.79,1.64,22.53,22.53,0,0,1-4.26,5.52,39,39,0,0,1-9.09,6.26c-1.92,1-4,1.93-6.25,2.94l-7,3.19c-19.74,8.94-46.8,21.75-76.87,35.52a199.72,199.72,0,0,1-44.08,15,184.35,184.35,0,0,1-20.13,3.06,166.78,166.78,0,0,1-17.73.59c-1.36,0-2.68-.11-4-.17s-2.54-.09-3.76-.22l-3.54-.34c-1.15-.09-2.26-.21-3.32-.38l-3.09-.44c-1-.13-2-.26-2.85-.47a21.9,21.9,0,0,1-4.81-1.57c-2.78-1.26-4.53-3.09-5.11-4.6l-.22-.52c0-.17-.09-.33-.13-.48a3,3,0,0,1-.14-.75c0-.4,0-.61,0-.61a8.94,8.94,0,0,0,.63,2.32c.61,1.47,2.35,3.23,5.11,4.46a22.68,22.68,0,0,0,4.77,1.51c.9.19,1.85.32,2.84.45l3.08.41c1.07.16,2.17.27,3.32.36l3.54.32c1.21.12,2.47.13,3.75.2s2.6.16,4,.16a169.54,169.54,0,0,0,17.68-.66,186.31,186.31,0,0,0,20.07-3.1,199.94,199.94,0,0,0,44-15C250,393.4,277,380.64,296.82,371.79l7.06-3.17c2.23-1,4.33-1.91,6.24-2.89a39,39,0,0,0,9.09-6.15,23.49,23.49,0,0,0,4.31-5.42c.41-.69.65-1.24.83-1.61S324.63,352,324.63,352Z" style="fill:#263238"></path><path d="M223.8,237.39c-2.06,2.54-13.7,7.83-13.52,20.6S233,312.82,233,312.82l-43.25,59.49,13.43,11.92L252.85,327a21.28,21.28,0,0,0,5-16.87l-4.64-33.51Z" style="fill:#eb996e"></path><path d="M191.89,370c-.59.57-7,7-7,7s-3.12,3.9-2.43,4.69c2.7,3.09,24.82,22.72,24.82,22.72s2.71.42.08-7.17-4.18-13-4.18-13l5.8-6.69Z" style="fill:#eb996e"></path><polygon points="333.23 210.82 357.99 235.11 400.88 243.97 398.42 257.37 351.95 251.42 319.4 229.86 333.23 210.82" style="fill:#eb996e"></polygon><path d="M398.1,244.35c.7-.46,1.5-1,2.41-1.73a9.13,9.13,0,0,0,2-2.2,14,14,0,0,0,1.69-3.31,1.12,1.12,0,0,1,2.11-.36c.38,1,.18,4.43-2.08,7.33a1.5,1.5,0,0,0,.78,2.14c2.25,1.15,10.24,4.75,11.5,5.55s2.16,1.86.88,1.91-8-1.77-8-1.77,8.88,2.21,8.5,3.49c-.27.88-2.75,1-8.48-1,0,0,7.31,1.88,8,2.75,1.54,2-7.27-.2-7.27-.2,6.15,1.58,6.13,1.24,6.09,2.11,0,.65-1.47.73-4.91.35-2.8-.3-14.8-2.31-14.8-2.31" style="fill:#eb996e"></path><path d="M406.38,256.06a16.65,16.65,0,0,0,4.17,1.25,16.33,16.33,0,0,0,4.31.69,16.86,16.86,0,0,0-4.18-1.25A16.13,16.13,0,0,0,406.38,256.06Z" style="fill:#aa6550"></path><path d="M406.73,253.63a19.34,19.34,0,0,0,4.38,1.58,19,19,0,0,0,4.53,1c.05-.16-1.91-.87-4.37-1.59A18.58,18.58,0,0,0,406.73,253.63Z" style="fill:#aa6550"></path><path d="M407.12,251.11a17.18,17.18,0,0,0,4.11,1.57,17.47,17.47,0,0,0,4.28,1,16.7,16.7,0,0,0-4.11-1.57A16.94,16.94,0,0,0,407.12,251.11Z" style="fill:#aa6550"></path><path d="M252,273.71c.72.86,36.74,26,36.74,26L271,344.41l17.53,3.22,25.26-41.37a15.75,15.75,0,0,0-3.82-21.41l-42.52-31.08-16.28,17.15" style="fill:#eb996e"></path><path d="M271,344.41c-.24.79-6.62,13.67-6.62,13.67s-.82,4.92.17,5.27c3.86,1.37,32.75,7.7,32.75,7.7s2.58-1-3.43-6.3-10-9.28-10-9.28l6.32-10.66Z" style="fill:#eb996e"></path><path d="M292.07,306.12s.14.09.36.31a7,7,0,0,1,.87,1,10,10,0,0,1,1.71,4.63,14.43,14.43,0,0,1-1.11,7.23,22.13,22.13,0,0,1-5.39,7.16,83,83,0,0,1-7,5.57,57.57,57.57,0,0,0-5.6,4.62,26,26,0,0,0-3.19,3.68c-.67,1-1,1.51-1,1.49a1.78,1.78,0,0,1,.19-.43,12.06,12.06,0,0,1,.66-1.17,22.59,22.59,0,0,1,3.1-3.83,52.71,52.71,0,0,1,5.57-4.74c2.18-1.67,4.63-3.43,6.94-5.57a22.2,22.2,0,0,0,5.3-7,14.3,14.3,0,0,0,1.18-7,10.36,10.36,0,0,0-1.51-4.56C292.51,306.59,292,306.16,292.07,306.12Z" style="fill:#263238"></path><path d="M290.18,324.37a10.58,10.58,0,0,0,.47-2,5.29,5.29,0,0,0-.31-2.14,4.34,4.34,0,0,0-.6-1.12,3.43,3.43,0,0,0-.43-.49.68.68,0,0,0-.46-.2c-.19,0-.37.59-.47,1a5,5,0,0,0-.1,1.26,4.51,4.51,0,0,0,.66,2,9.85,9.85,0,0,0,1.37,1.52,3,3,0,0,1-1.67-1.31,4.45,4.45,0,0,1-.83-2.21,4.23,4.23,0,0,1,.08-1.41,4.56,4.56,0,0,1,.21-.72.92.92,0,0,1,.68-.67c.78,0,1.07.56,1.37.91a4.54,4.54,0,0,1,.64,1.26,5,5,0,0,1,.22,2.34A3.14,3.14,0,0,1,290.18,324.37Z" style="fill:#263238"></path><path d="M293.85,319.44a3.22,3.22,0,0,1,1.22-1.72,4.9,4.9,0,0,1,2.08-1,5.23,5.23,0,0,1,2.86.17l.35.12-.23.28,0,0a6.61,6.61,0,0,1-4.44,2.47,3.78,3.78,0,0,1-2.1-.21c0-.09.81.07,2.05-.15A6.73,6.73,0,0,0,299.7,317v0l.12.4a4.94,4.94,0,0,0-4.54.67A12.55,12.55,0,0,0,293.85,319.44Z" style="fill:#263238"></path><path d="M294.44,313.38c-.08,0-.07-.48-.4-1.12a2.48,2.48,0,0,0-2.2-1.33h-.11l.22-.36a8.72,8.72,0,0,0,2.53,3c0,.05-.49-.06-1.12-.49a5.44,5.44,0,0,1-1.89-2.3l-.15-.35h.52a2.7,2.7,0,0,1,2.54,1.7C294.66,312.89,294.5,313.4,294.44,313.38Z" style="fill:#263238"></path><path d="M294.3,309.5a7.85,7.85,0,0,0,.51-2.81l.48.12h0a7.91,7.91,0,0,0-.82,2.75c-.06,0-.21-.32-.22-.89a3.8,3.8,0,0,1,.61-2.14h0l.41-.66.07.77a3.91,3.91,0,0,1-.43,2.17C294.63,309.31,294.35,309.54,294.3,309.5Z" style="fill:#263238"></path><path d="M284.76,329.25a8,8,0,0,1,4.26.44,4.18,4.18,0,0,1,2.08,1.92l.11.25-.25.1-.14.06a5.09,5.09,0,0,1-2.86.24,4.89,4.89,0,0,1-2.11-1,3.17,3.17,0,0,1-1.23-1.71,11.51,11.51,0,0,0,1.46,1.42,4.79,4.79,0,0,0,4.55.57l.13,0-.14.35a3.81,3.81,0,0,0-1.8-1.71,7.24,7.24,0,0,0-2.05-.59A10.89,10.89,0,0,1,284.76,329.25Z" style="fill:#263238"></path><path d="M275.83,336.49a8.7,8.7,0,0,1,2.55-.06,8.23,8.23,0,0,1,2.73.66,5,5,0,0,1,2.55,2.36l.12.25-.25.1-.18.07a6.26,6.26,0,0,1-3.52.3,6.1,6.1,0,0,1-2.61-1.23,5.76,5.76,0,0,1-1.28-1.45c-.23-.39-.31-.63-.28-.65a11.14,11.14,0,0,0,1.78,1.81,6.06,6.06,0,0,0,5.72.74l.17-.07-.14.35a4.74,4.74,0,0,0-2.28-2.15,8.84,8.84,0,0,0-2.57-.73A20.21,20.21,0,0,1,275.83,336.49Z" style="fill:#263238"></path><path d="M279.39,333.35a14.83,14.83,0,0,0,1.23-1.84,9.36,9.36,0,0,0,.84-2.22,6.13,6.13,0,0,0-.06-2.85l.4.15-.07,0a6.17,6.17,0,0,0-2.48,4.49,15.67,15.67,0,0,0,.14,2.23,3.82,3.82,0,0,1-.5-2.25,6.18,6.18,0,0,1,2.54-4.89l.07,0,.3-.22.1.37a6.35,6.35,0,0,1,0,3.09,8.75,8.75,0,0,1-1,2.29C280.21,332.92,279.42,333.41,279.39,333.35Z" style="fill:#263238"></path><path d="M266.28,353.34s10.8,3.63,17.56,2.13l3.34-5.64-18.06-2.25Z" style="fill:#263238"></path><path d="M280.73,190.86c-1.13,1-56.93,46.53-56.93,46.53s6.45,24.34,43.61,16.38l33.85-13.42a51.91,51.91,0,0,0,9-4.6l9.18-5.89,14.21-18.3c-2.59-5.28-6.89-10.87-14.79-13.14l-19.57-5.12Z" style="fill:#407FFF"></path><path d="M231.67,312.2l-20.89-45.46a20.93,20.93,0,0,1,6.84-24.94l7.95-5.9,48,15.44,39.34,36.32-25.26,12.62-33.08-24.79,3.13,29.78Z" style="fill:#407FFF"></path><path d="M234.9,310.81S214.57,264.1,214.24,258s.06-6.74,1.83-10.17,53-38.86,53-38.86l6.61,0-55.19,39.68a11.64,11.64,0,0,0-2,8.65c1,4.78,20.7,52.82,20.7,52.82Z" style="fill:#f5f5f5"></path><path d="M251.91,259.09a72.9,72.9,0,0,1,1.48,8.47,72.39,72.39,0,0,1,1,8.54,68.14,68.14,0,0,1-1.48-8.47A72.17,72.17,0,0,1,251.91,259.09Z" style="fill:#263238"></path><path d="M280.69,245a9.24,9.24,0,0,1-1.5.62c-1,.37-2.41.86-4.2,1.42a119.51,119.51,0,0,1-28.71,5.18c-1.87.1-3.38.14-4.43.14a10.75,10.75,0,0,1-1.62-.05,8.62,8.62,0,0,1,1.61-.15c1-.06,2.55-.16,4.41-.31,3.72-.29,8.85-.85,14.45-1.85s10.6-2.29,14.18-3.32c1.8-.51,3.25-.94,4.24-1.25A10.24,10.24,0,0,1,280.69,245Z" style="fill:#263238"></path><path d="M278.42,250.34c0,.14-6.19,1.17-13.87,2.29s-13.93,1.93-14,1.78,6.19-1.17,13.88-2.29S278.4,250.19,278.42,250.34Z" style="fill:#263238"></path><g style="opacity:0.30000000000000004"><path d="M246.36,219.1a6.88,6.88,0,0,0,4.91,5.3,15,15,0,0,0,7.56,0,39.3,39.3,0,0,0,23.62-15.07c-8-1.52-16.5-3.62-23.95-.27l-12.14,10"></path></g><polygon points="252.61 263.97 282.45 296.4 254.54 275.5 252.61 263.97" style="opacity:0.30000000000000004"></polygon><g style="opacity:0.2"><path d="M249.9,251.5c-1.36.25-2.55-1.32-2.28-2.67a3.74,3.74,0,0,1,2.9-2.63,13.53,13.53,0,0,1,4.12-.09A39.42,39.42,0,0,0,282,237.17a9.93,9.93,0,0,1,3.51-2.26c1.35-.38,2.58-1.22,3.07.1a6.13,6.13,0,0,1-1.18,5.27c-5,4.77-11.64,7.63-18.4,9.19s-13.72,1.91-20.65,2.25"></path></g><path d="M313.12,154.49c-2.84.4-4.64,3.2-6,5.74s-2.95,5.38-5.74,6.05c-2.31.56-5.2-.42-6.79,1.33a2.69,2.69,0,0,0,2.41,4.47,4.66,4.66,0,0,0-1.68,5.19c.74,1.81,3.37,2.69,4.81,1.37a2.37,2.37,0,1,0,3.45,3.24" style="fill:#263238"></path><path d="M331.08,188.93a2.85,2.85,0,1,0,5.61,1c.18-1.19-.39-2.49.17-3.55.66-1.28,2.46-1.35,3.9-1.17s3.16.32,4.06-.81.41-2.68,0-4-.45-3.12.76-3.81a11.85,11.85,0,0,1,2.07-.53,3.13,3.13,0,0,0,1.63-3.95,5.73,5.73,0,0,0-3.36-3.16,41.73,41.73,0,0,0-4.56-1.31,19,19,0,0,1-11.61-9.85" style="fill:#263238"></path><path d="M308.91,164.82l-11.24,30.4a10.27,10.27,0,0,0,6.13,13.23h0a10.28,10.28,0,0,0,12.83-5.32c1.2-2.57,2.19-4.71,2.19-4.71s7.95,2.23,11.43-5.15c1.68-3.57,4.55-11.2,7.06-18.14a15.2,15.2,0,0,0-8-19l-.72-.32A15.1,15.1,0,0,0,308.91,164.82Z" style="fill:#eb996e"></path><path d="M318.88,198.32a19,19,0,0,1-8.43-7.17s-.15,6.39,7.57,9.1Z" style="fill:#aa6550"></path><path d="M332.07,178.8a1.16,1.16,0,0,1-1.51.6,1.11,1.11,0,0,1-.65-1.45,1.17,1.17,0,0,1,1.51-.61A1.11,1.11,0,0,1,332.07,178.8Z" style="fill:#263238"></path><path d="M334.05,178.05c-.19.08-.72-.88-1.87-1.4s-2.23-.33-2.29-.53.21-.28.7-.37a3.21,3.21,0,0,1,1.91.24,3.1,3.1,0,0,1,1.41,1.29C334.14,177.71,334.15,178,334.05,178.05Z" style="fill:#263238"></path><path d="M321,173.91a1.17,1.17,0,0,1-1.51.6,1.11,1.11,0,0,1-.65-1.46,1.16,1.16,0,0,1,1.51-.6A1.12,1.12,0,0,1,321,173.91Z" style="fill:#263238"></path><path d="M322.74,173.14c-.2.08-.73-.88-1.87-1.4s-2.24-.33-2.3-.52.21-.28.7-.38a3.19,3.19,0,0,1,1.92.25,3,3,0,0,1,1.41,1.29C322.83,172.81,322.83,173.11,322.74,173.14Z" style="fill:#263238"></path><path d="M323,183.5a8,8,0,0,1,2,.51c.3.1.6.17.74,0a1.56,1.56,0,0,0,.2-.95q.07-1.25.15-2.61a42,42,0,0,1,.72-6.69,43.14,43.14,0,0,1-.18,6.73c-.06.91-.13,1.78-.19,2.61a1.83,1.83,0,0,1-.37,1.21.83.83,0,0,1-.67.21,2.08,2.08,0,0,1-.53-.16A8.1,8.1,0,0,1,323,183.5Z" style="fill:#263238"></path><path d="M319.3,182.75c.19.08-.37,1.32.29,2.68s2,1.83,2,2-.41.1-1-.14a3.41,3.41,0,0,1-1.68-1.6,3,3,0,0,1-.16-2.21C318.94,183,319.22,182.71,319.3,182.75Z" style="fill:#263238"></path><path d="M325.07,168.81c-.25.25-1.32-.41-2.73-.86s-2.67-.58-2.72-.94c0-.17.31-.38.88-.48a4.76,4.76,0,0,1,2.23.21,4.7,4.7,0,0,1,1.92,1.16C325.05,168.32,325.19,168.68,325.07,168.81Z" style="fill:#263238"></path><path d="M335.14,174.55c-.32.17-1-.46-1.92-.9s-1.83-.62-1.89-1c0-.17.23-.37.69-.45a2.88,2.88,0,0,1,1.76.29,3,3,0,0,1,1.31,1.22C335.3,174.15,335.29,174.47,335.14,174.55Z" style="fill:#263238"></path><path d="M320.69,160.35l-.05,0a6.44,6.44,0,0,0-3.9,2.78l-.09.14c-1.26,2-2.19,4.17-3.46,6.14A10.62,10.62,0,0,1,308,174c-.92.3-2.25.2-2.45-.75a2.07,2.07,0,0,1,.17-1.09c1.94-5.29,2.62-10.47,5.07-15.81a4.93,4.93,0,0,1,3.54-2.82c1.49-.29,3.23-.5,4.21.66s1.52,4.22,2,5.65" style="fill:#263238"></path><path d="M309.88,169.32c-.1-.11-4.41-3.84-6.57,1.31s3.47,6.26,3.54,6.11S309.88,169.32,309.88,169.32Z" style="fill:#eb996e"></path><path d="M306.09,174.13s-.12,0-.3,0a.94.94,0,0,1-.67-.26,2.43,2.43,0,0,1-.2-2.43,3.35,3.35,0,0,1,.79-1.18,1.11,1.11,0,0,1,1-.4.49.49,0,0,1,.43.47c0,.17-.07.26,0,.28s.14,0,.19-.27a.64.64,0,0,0-.07-.41.74.74,0,0,0-.44-.34,1.36,1.36,0,0,0-1.27.41,3.28,3.28,0,0,0-.91,1.3,2.53,2.53,0,0,0,.38,2.78,1,1,0,0,0,.88.2C306,174.25,306.1,174.15,306.09,174.13Z" style="fill:#aa6550"></path><path d="M318,154.86c-.32-2.6,4.43-4,7.3-3.6s5.61,3.08,7.72,5.05c1.34,1.24,2.58,2.68,4.26,3.37a12.44,12.44,0,0,0,3.6.65,9.15,9.15,0,0,1,3.54.84,3.39,3.39,0,0,1,1.9,2.91,2.12,2.12,0,0,1-2.47,2,2.74,2.74,0,1,1-1.44,4.92c1-.22,1.66,1.19,1.16,2.05a2.88,2.88,0,0,1-2.61,1.13,10.44,10.44,0,0,1-6.73-3.19c-1.86-1.74-3.36-3.82-5.17-5.6s-4.81-4.87-7.34-5.09c-1.86-.17-3.86,1.26-4.57.42a3.42,3.42,0,0,1-.57-3,9.88,9.88,0,0,1,1.42-2.85" style="fill:#263238"></path><path d="M341.52,164.12a1.57,1.57,0,0,1,1.19.75,2.9,2.9,0,0,1-.4,3.68c-1.28,1.2-3.62,1.27-5.54.22a13.62,13.62,0,0,1-4.87-5,33.86,33.86,0,0,0-3.95-5.6,9.26,9.26,0,0,0-2.34-1.77,7,7,0,0,0-2.45-.65,5.22,5.22,0,0,0-3.51.89,9.44,9.44,0,0,0-1,1,1.48,1.48,0,0,1,.17-.33,3.7,3.7,0,0,1,.7-.79,5.31,5.31,0,0,1,3.66-1.1,7.26,7.26,0,0,1,2.62.63,9.4,9.4,0,0,1,2.49,1.82,32.41,32.41,0,0,1,4,5.65,13.5,13.5,0,0,0,4.65,4.85c1.78,1,3.93,1,5.08-.08a2.46,2.46,0,0,0,.83-1.79,2.59,2.59,0,0,0-.36-1.5A2.42,2.42,0,0,0,341.52,164.12Z" style="fill:#455a64"></path><path d="M328.82,155.22c-.06.07-.61-.44-1.68-1a8.25,8.25,0,0,0-4.44-.81,8.34,8.34,0,0,0-4.17,1.75c-.92.74-1.36,1.37-1.43,1.31a3.87,3.87,0,0,1,1.19-1.58,7.7,7.7,0,0,1,4.35-2,7.79,7.79,0,0,1,4.68,1A4,4,0,0,1,328.82,155.22Z" style="fill:#455a64"></path><path d="M309.32,162.21a2.61,2.61,0,0,1,.2-1.57,5.82,5.82,0,0,1,2.37-3,5.73,5.73,0,0,1,3.73-.82,2.61,2.61,0,0,1,1.5.5c0,.08-.59-.11-1.52-.14a6.23,6.23,0,0,0-3.44.91,6.14,6.14,0,0,0-2.3,2.69C309.48,161.63,309.4,162.22,309.32,162.21Z" style="fill:#455a64"></path><path d="M206.4,233.66l-1.17,2.11a51.79,51.79,0,0,0-1.75,4.91,26.4,26.4,0,0,0,.38,5.74c0,.09.06.2.09.27a1.2,1.2,0,0,1,.12.54,1.32,1.32,0,0,1-1.93,1.39c-.94-.61-2.17-3.58-2.13-7.4,0-.06,0-.12,0-.18-.06-3.88-3.74.9-5.11,2.62s-5.87,6.83-6.72,6.81c-1.25,0-1.46-1.4,0-3.08s5.29-7,4.37-7.74-7.78,8.15-7.78,8.15-1.17,2.14-2.27,1.36c-2-1.4,6-10.25,6.8-11.08.54-.57-.43-1.37-1-.72s-6.66,9-8.68,7.58c-1.55-1.08,6.5-7.35,6.83-9.8s-5.63,5.39-7.07,4.3c-.54-.41-.88-.79,3.17-4.78a121.53,121.53,0,0,1,10.43-8.38l5.69-5" style="fill:#eb996e"></path><path d="M289.7,201.42a9.1,9.1,0,0,0-9-10.56c-12.92,0-34.5,0-43.73,0a11.56,11.56,0,0,0-7.69,2.95l-36.57,32.7,10.12,10.36,35.24-28,42.58.19a9.09,9.09,0,0,0,9-7.64Z" style="fill:#eb996e"></path><path d="M250.67,209.08c-.07,0,.36-1,.9-2.61A32,32,0,0,0,253,200a31,31,0,0,0,0-6.61c-.16-1.69-.37-2.73-.29-2.75a10.09,10.09,0,0,1,.66,2.7,25.92,25.92,0,0,1-1.49,13.24A9.62,9.62,0,0,1,250.67,209.08Z" style="fill:#263238"></path><path d="M256.41,191.68a8.81,8.81,0,0,1,.63,2.56,23.47,23.47,0,0,1-1.6,12.54,9,9,0,0,1-1.26,2.32c-.07,0,.37-.94.92-2.45a28.31,28.31,0,0,0,1.58-12.37C256.53,192.68,256.33,191.69,256.41,191.68Z" style="fill:#263238"></path><path d="M255,206.59c0,.14-.58.38-1.36.28s-1.31-.48-1.25-.6.63,0,1.32.08S255,206.45,255,206.59Z" style="fill:#263238"></path><path d="M255.24,204.77c0,.14-.51.18-1.09.08s-1-.28-1-.42.51-.18,1.09-.09S255.26,204.62,255.24,204.77Z" style="fill:#263238"></path><path d="M256.1,202.63c0,.14-.54.27-1.21.16s-1.15-.41-1.1-.54.57-.07,1.18,0S256.1,202.48,256.1,202.63Z" style="fill:#263238"></path><path d="M256.55,200.26c0,.15-.57.28-1.28.31s-1.28-.07-1.29-.22.57-.28,1.28-.3S256.54,200.12,256.55,200.26Z" style="fill:#263238"></path><path d="M256.33,198.23c0,.14-.45.16-.94.17s-.91,0-.94-.17.38-.36.94-.35S256.37,198.09,256.33,198.23Z" style="fill:#263238"></path><path d="M256.36,195.69c0,.14-.45.32-1,.38s-1.09,0-1.11-.13.45-.31,1-.38S256.35,195.55,256.36,195.69Z" style="fill:#263238"></path><path d="M256.05,193.71c0,.14-.44.16-.93.18s-.89,0-.94-.1.35-.39.92-.42S256.09,193.57,256.05,193.71Z" style="fill:#263238"></path><path d="M255.89,192.25c-.08.12-.5,0-1-.06s-.93.05-1-.09.37-.48,1-.43S256,192.14,255.89,192.25Z" style="fill:#263238"></path><path d="M259,197.44c-.07,0,.16-.36.64-.18a.68.68,0,0,1,.41.73.82.82,0,0,1-.76.7.85.85,0,0,1-.83-.59.78.78,0,0,1,.18-.79c.34-.33.66-.22.64-.16s-.21.14-.35.39a.42.42,0,0,0,0,.39.38.38,0,0,0,.36.24.36.36,0,0,0,.31-.27.29.29,0,0,0-.12-.32C259.24,197.41,259,197.49,259,197.44Z" style="fill:#263238"></path><path d="M258.6,193.72c-.07,0,.17-.35.64-.17a.68.68,0,0,1,.42.73.82.82,0,0,1-.76.7.85.85,0,0,1-.83-.59.75.75,0,0,1,.18-.79c.34-.33.66-.22.64-.16s-.22.13-.35.38a.41.41,0,0,0,0,.4.42.42,0,0,0,.36.24.4.4,0,0,0,.31-.27.32.32,0,0,0-.12-.32C258.86,193.7,258.65,193.78,258.6,193.72Z" style="fill:#263238"></path><path d="M258.3,202c-.07,0,.16-.35.64-.17a.68.68,0,0,1,.41.73.82.82,0,0,1-.76.7.85.85,0,0,1-.83-.59.77.77,0,0,1,.18-.8c.34-.32.66-.22.64-.15s-.21.13-.35.38a.41.41,0,0,0,0,.4.42.42,0,0,0,.36.24.37.37,0,0,0,.31-.27.28.28,0,0,0-.12-.32C258.55,202,258.34,202.08,258.3,202Z" style="fill:#263238"></path><path d="M257.21,206.52c-.07,0,.17-.36.64-.18a.68.68,0,0,1,.42.73.84.84,0,0,1-.76.71.87.87,0,0,1-.83-.6.76.76,0,0,1,.18-.79c.34-.33.66-.22.64-.16s-.22.14-.35.39a.39.39,0,0,0,0,.39.41.41,0,0,0,.36.25.42.42,0,0,0,.31-.27.33.33,0,0,0-.12-.33C257.47,206.49,257.26,206.57,257.21,206.52Z" style="fill:#263238"></path><path d="M260.83,190.74a10.24,10.24,0,0,1,.7,2.67,28.12,28.12,0,0,1-.9,13.22,10.57,10.57,0,0,1-1.05,2.55,23.21,23.21,0,0,1,.7-2.66,35.83,35.83,0,0,0,1.07-6.48,36.2,36.2,0,0,0-.18-6.57A24.13,24.13,0,0,1,260.83,190.74Z" style="fill:#263238"></path><path d="M262.66,191.08a10.06,10.06,0,0,1,.71,2.59,26.69,26.69,0,0,1,.33,6.5,25.89,25.89,0,0,1-1.28,6.38,9.34,9.34,0,0,1-1.08,2.46c-.07,0,.29-1,.73-2.57a31.93,31.93,0,0,0,1.11-6.31,32.73,32.73,0,0,0-.18-6.4A20.29,20.29,0,0,1,262.66,191.08Z" style="fill:#263238"></path><path d="M268.24,199.68s-.25,0-.61.11a1.1,1.1,0,0,0-.61,1.31,1.54,1.54,0,0,0,1.83,1.05,1.5,1.5,0,0,0,1.08-.72,2,2,0,0,0,.21-1.44,2.28,2.28,0,0,0-2.08-1.76,3.19,3.19,0,0,0-2.32.69,7.76,7.76,0,0,0-1.49,1.85s0-.25.18-.65a4.18,4.18,0,0,1,1.08-1.48,3.41,3.41,0,0,1,2.59-.89,3,3,0,0,1,1.58.58,2.55,2.55,0,0,1,1,1.55,2.52,2.52,0,0,1-.28,1.81,2,2,0,0,1-1.45.93,2.16,2.16,0,0,1-1.51-.31,1.71,1.71,0,0,1-.75-1.14,1.52,1.52,0,0,1,.22-1.09,1.23,1.23,0,0,1,.68-.48C268,199.48,268.26,199.67,268.24,199.68Z" style="fill:#263238"></path><path d="M248.8,198.47s.23-.12.59.08a1.29,1.29,0,0,1,.53,1.51,1.53,1.53,0,0,1-2.26.56,2,2,0,0,1-.26-2.84,2.9,2.9,0,0,1,2.74-.95,2.75,2.75,0,0,1,2,1.35,2.44,2.44,0,0,1,.3,1.56c-.06.37-.18.55-.21.54a3.08,3.08,0,0,0-.4-1.91,2.56,2.56,0,0,0-4-.26,1.51,1.51,0,0,0,.14,2.12,1.13,1.13,0,0,0,1.64-.31,1.07,1.07,0,0,0-.31-1.2C249,198.51,248.8,198.52,248.8,198.47Z" style="fill:#263238"></path><path d="M251.7,197c-.14,0-.38-.52-.54-1.23s-.17-1.31,0-1.34.38.52.53,1.23S251.84,196.94,251.7,197Z" style="fill:#263238"></path><path d="M251.45,201.52c.08.12-.21.48-.66.81s-.88.5-1,.39.21-.48.66-.81S251.36,201.41,251.45,201.52Z" style="fill:#263238"></path><path d="M265.24,203.58c-.13.06-.4-.23-.6-.65s-.27-.82-.14-.88.4.23.6.65S265.37,203.51,265.24,203.58Z" style="fill:#263238"></path><path d="M266.58,195.55c.12.08-.19.71-.68,1.4s-1,1.19-1.12,1.11.2-.72.69-1.41S266.47,195.46,266.58,195.55Z" style="fill:#263238"></path></g></svg>